<?xml version="1.0" encoding="UTF-8" standalone="no"?>
<!-- Created with Inkscape (http://www.inkscape.org/) -->

<svg
   width="128mm"
   height="128mm"
   viewBox="0 0 128 128"
   version="1.1"
   id="svg1"
   xml:space="preserve"
   inkscape:version="1.3.2 (091e20e, 2023-11-25, custom)"
   sodipodi:docname="favicon.svg"
   xmlns:inkscape="http://www.inkscape.org/namespaces/inkscape"
   xmlns:sodipodi="http://sodipodi.sourceforge.net/DTD/sodipodi-0.dtd"
   xmlns:xlink="http://www.w3.org/1999/xlink"
   xmlns="http://www.w3.org/2000/svg"
   xmlns:svg="http://www.w3.org/2000/svg"><sodipodi:namedview
     id="namedview1"
     pagecolor="#505050"
     bordercolor="#eeeeee"
     borderopacity="1"
     inkscape:showpageshadow="0"
     inkscape:pageopacity="0"
     inkscape:pagecheckerboard="0"
     inkscape:deskcolor="#505050"
     inkscape:document-units="mm"
     showgrid="false"
     inkscape:zoom="1.0242632"
     inkscape:cx="235.29109"
     inkscape:cy="311.93154"
     inkscape:window-width="1920"
     inkscape:window-height="1009"
     inkscape:window-x="-8"
     inkscape:window-y="-8"
     inkscape:window-maximized="1"
     inkscape:current-layer="layer1" /><defs
     id="defs1"><linearGradient
       id="linearGradient1"
       inkscape:collect="always"><stop
         style="stop-color:#1d8795;stop-opacity:1;"
         offset="0"
         id="stop1" /><stop
         style="stop-color:#58d39a;stop-opacity:1;"
         offset="1"
         id="stop2" /></linearGradient><linearGradient
       inkscape:collect="always"
       xlink:href="#linearGradient1"
       id="linearGradient2"
       x1="48.913174"
       y1="76.283409"
       x2="147.50055"
       y2="137.76256"
       gradientUnits="userSpaceOnUse"
       gradientTransform="matrix(0.74052117,0,0,0.74052117,-13.60316,-20.609783)"
       spreadMethod="pad" /></defs><g
     inkscape:label="Layer 1"
     inkscape:groupmode="layer"
     id="layer1"><path
       style="fill:url(#linearGradient2);stroke:none;stroke-width:0.524452;stroke-opacity:1"
       d="M 40.281827,104.03218 C 38.185943,103.89679 36.272603,103.6511 34.417346,103.27915 23.852879,101.16113 15.17104,94.390622 10.030126,84.260856 7.0148457,78.319476 5.6731844,72.989673 5.4926136,66.2354 5.3526721,61.000849 5.9643309,55.880698 7.3208968,50.930989 9.0925296,44.466816 12.46548,38.846821 17.437534,34.0747 c 5.532903,-5.310417 11.754898,-8.577474 18.542702,-9.73644 7.528546,-1.28544 17.565599,0.677269 23.558712,4.606819 1.283283,0.841426 3.154409,2.330911 4.436326,3.531482 0.991935,0.928993 0.982612,0.947029 -2.08142,4.026768 -1.469127,1.476665 -2.822923,2.723151 -3.008431,2.76997 -0.38807,0.09795 -0.330857,0.129944 -2.881947,-1.612026 -4.217611,-2.879933 -8.43607,-4.306718 -13.425118,-4.5407 -4.04408,-0.189664 -8.459038,0.75461 -11.872879,2.539378 -2.833169,1.481189 -6.753693,4.73249 -8.671277,7.191108 -2.080282,2.667222 -4.239469,6.527034 -5.202492,9.300093 -1.753833,5.050206 -2.526403,12.172867 -1.869302,17.233959 0.56175,4.326733 2.10735,8.714031 4.285851,12.165734 3.261427,5.167541 9.005814,9.771998 14.464853,11.594413 2.869918,0.958087 6.649244,1.396009 9.774687,1.13265 6.323297,-0.532835 10.850701,-2.797875 16.088849,-8.049161 2.342614,-2.34849 3.391406,-3.611441 7.277936,-8.764039 3.480175,-4.613862 4.676227,-6.094704 6.940312,-8.592844 5.625576,-6.207153 10.077352,-8.685109 18.943337,-10.544284 6.849891,-1.436412 8.804797,-2.129287 11.382577,-4.034338 3.1377,-2.318838 4.13176,-4.858115 3.97649,-10.157779 -0.0766,-2.615656 -0.23655,-3.430244 -0.97339,-4.958472 -0.61448,-1.274442 -2.96736,-3.623797 -4.34596,-4.339443 -2.0684,-1.073741 -3.726125,-1.202337 -15.564086,-1.207379 l -8.502989,-0.0037 0.09314,13.494511 c 0.09052,13.114764 0.08575,13.502851 -0.169571,13.790914 -0.249844,0.281872 -6.822096,5.559544 -7.543852,6.05787 -0.478799,0.330592 -0.929214,0.295423 -1.328348,-0.103705 l -0.340608,-0.34054 V 46.121344 c 0,-20.131559 0.0037,-20.407849 0.273993,-20.67818 0.150696,-0.150696 0.416084,-0.303764 0.589737,-0.340149 0.446942,-0.09364 10.538912,-0.34277 18.007779,-0.444529 11.135621,-0.151717 14.665835,0.205406 17.906045,1.811415 4.00165,1.983413 7.42582,5.486224 9.68344,9.90583 1.22234,2.392914 1.83952,4.489221 2.106,7.153258 0.42528,4.251581 -0.99114,9.655542 -3.53152,13.473499 -0.7983,1.199762 -2.81697,3.414553 -3.86115,4.236258 l -0.61558,0.484412 1.74756,1.156057 c 4.49262,2.971992 7.07516,5.75907 8.83159,9.53104 2.39311,5.139268 2.60159,10.549953 0.6333,16.436911 -1.22486,3.663514 -3.13136,6.689032 -5.71489,9.069332 -2.81543,2.593952 -6.7914,4.875092 -9.45675,5.425642 -1.91417,0.39536 -5.75392,0.50474 -20.799728,0.59248 l -15.074514,0.0879 -0.362648,-0.36264 -0.362664,-0.36266 v -4.303734 -4.303743 l 0.931903,-1.14894 c 5.074494,-6.256389 6.502412,-7.992801 6.792882,-8.260446 0.422333,-0.389137 0.871497,-0.397358 1.345356,-0.02459 l 0.365617,0.28759 v 4.301051 4.301043 l 12.037519,-0.04422 12.037527,-0.04421 0.84627,-0.356989 c 1.80772,-0.762567 4.36415,-2.774615 5.77169,-4.542661 2.01365,-2.529361 2.84209,-5.661943 2.47438,-9.356396 -0.26796,-2.692402 -0.87774,-4.60428 -2.04361,-6.40756 -2.07876,-3.215253 -5.20943,-5.017259 -9.92598,-5.713372 -1.212726,-0.178991 -2.107429,-0.2125 -3.991423,-0.149504 -6.561522,0.21941 -10.758863,2.270675 -15.43843,7.544852 -1.913929,2.157131 -2.784456,3.292453 -6.212758,8.102561 -4.462129,6.260632 -6.455619,8.686297 -9.77776,11.897516 -2.124391,2.053471 -3.819275,3.380295 -5.621352,4.400648 -3.745733,2.120854 -9.173326,3.892694 -13.319959,4.348304 -1.554902,0.17084 -4.332559,0.27749 -5.411681,0.20778 z"
       id="path1"
       inkscape:label="logo_text" /></g></svg>
